<svg width="107" height="107" viewBox="0 0 107 107" fill="none" xmlns="http://www.w3.org/2000/svg">
<g filter="url(#filter0_d_2_82)">
<circle cx="53.5" cy="49.5" r="49.5" fill="#FFF7E9"/>
<path d="M12.5445 29.3134C17.9229 18.3601 27.2449 10.1569 38.7931 6.21461C50.3414 2.27277 62.7336 3.06371 73.6869 8.4421C84.6402 13.8205 92.8434 23.1425 96.7858 34.6907C100.728 46.239 99.9366 58.6312 94.5583 69.5845C92.8231 73.1181 90.6453 76.41 88.0853 79.3684C87.5916 79.9391 86.8798 80.2748 86.1254 80.2929C85.371 80.3111 84.644 80.0098 84.1234 79.4635C83.6738 78.9916 83.1459 78.6052 82.5543 78.3147C79.8136 76.9689 76.4887 78.1039 75.1429 80.8446C75.0286 81.0775 74.9281 81.3258 74.8447 81.5827C74.6034 82.3244 74.0522 82.9227 73.3339 83.2239C72.6156 83.5251 71.8017 83.4984 71.1044 83.1508C71.0748 83.1361 71.0461 83.121 71.0174 83.1057C68.2816 81.7802 64.9741 82.9167 63.6326 85.6487C63.5183 85.8816 63.4178 86.1299 63.3344 86.3867C63.0928 87.1287 62.5418 87.7269 61.8236 88.0279C61.1053 88.3291 60.2914 88.3024 59.5941 87.9548C59.5647 87.9402 59.5361 87.9252 59.5074 87.9099C56.7717 86.5843 53.4639 87.7206 52.1223 90.4527C51.816 91.0766 51.6319 91.7435 51.5747 92.4349C51.5152 93.1544 51.1679 93.8192 50.611 94.2788C50.0543 94.7384 49.3358 94.9535 48.6181 94.8757C43.3363 94.3028 38.2217 92.8157 33.4158 90.4559C22.4625 85.0775 14.2593 75.7555 10.317 64.2073C6.37517 52.659 7.16611 40.2668 12.5445 29.3134Z" fill="#774E2E"/>
<path d="M12.6869 44.0083C12.3901 43.7878 12.2417 43.5249 12.2417 43.2196C12.2417 43.1008 12.2629 42.9863 12.3053 42.8761C12.3477 42.7573 12.424 42.6386 12.5343 42.5199L12.9032 42.1001C13.1237 41.8287 13.3824 41.693 13.6792 41.693C13.781 41.693 13.8912 41.7142 14.01 41.7566C14.1202 41.7905 14.2347 41.8541 14.3535 41.9474C15.5408 42.8379 16.6815 43.7623 17.7755 44.7207C18.8781 45.6706 19.9425 46.7095 20.9687 47.8375C21.1298 47.9901 21.2697 48.0665 21.3885 48.0665C21.6175 48.0665 21.7574 47.9138 21.8083 47.6085L22.9278 43.1432C23.055 42.6429 23.3137 42.3927 23.7038 42.3927C23.7886 42.3927 23.8777 42.4054 23.9709 42.4308C24.0727 42.4563 24.1745 42.5029 24.2763 42.5708L24.7215 42.8125C25.1371 43.0415 25.3449 43.351 25.3449 43.7411C25.3449 43.8684 25.3194 44.0083 25.2685 44.161C24.9802 45.2211 24.6876 46.3406 24.3908 47.5194C24.1024 48.6898 23.8056 49.8941 23.5002 51.1324C23.1949 52.3621 22.8811 53.6088 22.5589 54.8725C22.2366 56.1362 21.9058 57.3871 21.5666 58.6254C21.4309 59.1427 21.1383 59.4014 20.6888 59.4014C20.5616 59.4014 20.4216 59.3759 20.269 59.3251L19.8492 59.1978C19.5863 59.13 19.3954 59.0197 19.2767 58.8671C19.158 58.7144 19.0986 58.5278 19.0986 58.3073C19.0986 58.2564 19.0986 58.1971 19.0986 58.1292C19.1071 58.0614 19.124 57.9935 19.1495 57.9257C19.4209 56.9164 19.688 55.9157 19.9509 54.9234C20.2138 53.9311 20.4683 52.9346 20.7142 51.9338C20.7312 51.8745 20.7439 51.8236 20.7524 51.7812C20.7609 51.7388 20.7651 51.6921 20.7651 51.6412C20.7651 51.5395 20.7397 51.4419 20.6888 51.3486C20.6464 51.2553 20.587 51.1621 20.5107 51.0688C19.3149 49.7457 18.0639 48.5032 16.7578 47.3413C15.4602 46.1794 14.1033 45.0684 12.6869 44.0083ZM28.3146 44.4281C28.3655 44.1313 28.5097 43.9108 28.7471 43.7666C28.9846 43.6139 29.379 43.5376 29.9302 43.5376C30.2271 43.5376 30.4561 43.6139 30.6172 43.7666C30.7868 43.9192 30.8716 44.1313 30.8716 44.4027C30.8716 44.4451 30.8674 44.4832 30.8589 44.5172C30.8504 44.5511 30.8462 44.5892 30.8462 44.6317C30.7529 45.1829 30.6766 45.7554 30.6172 46.3491C30.5578 46.9427 30.5281 47.5449 30.5281 48.1555C30.5281 48.9443 30.596 49.6906 30.7317 50.3945C30.8759 51.09 31.1261 51.7006 31.4823 52.2264C31.8469 52.7438 32.3388 53.1551 32.958 53.4604C33.5856 53.7572 34.3828 53.9057 35.3496 53.9057C35.8924 53.9057 36.3716 53.8081 36.7872 53.6131C37.2027 53.418 37.5462 53.1509 37.8176 52.8116C38.0975 52.4639 38.3053 52.0568 38.441 51.5903C38.5851 51.1239 38.6572 50.6193 38.6572 50.0765C38.6572 49.5337 38.5979 48.9994 38.4791 48.4736C38.3689 47.9477 38.2162 47.4304 38.0211 46.9215C37.8346 46.4042 37.6141 45.8953 37.3596 45.3949C37.1137 44.8946 36.8508 44.3899 36.5709 43.8811C36.4521 43.6521 36.3928 43.4443 36.3928 43.2577C36.3928 42.927 36.5666 42.6471 36.9144 42.4181L37.436 42.0746C37.6649 41.922 37.8812 41.8456 38.0847 41.8456C38.3985 41.8456 38.6615 42.0365 38.8735 42.4181C39.1958 42.9863 39.5053 43.563 39.8022 44.1482C40.099 44.7249 40.3577 45.3186 40.5782 45.9293C40.8072 46.5399 40.9853 47.1717 41.1125 47.8248C41.2482 48.4693 41.316 49.1351 41.316 49.822C41.316 50.7804 41.1549 51.654 40.8326 52.4427C40.5188 53.2314 40.0693 53.9099 39.4841 54.4781C38.8989 55.0379 38.195 55.4704 37.3723 55.7757C36.5582 56.0895 35.6507 56.2464 34.6499 56.2464C33.5644 56.2464 32.5975 56.0556 31.7494 55.674C30.9098 55.3008 30.2016 54.7835 29.6249 54.1219C29.0482 53.4519 28.6114 52.6632 28.3146 51.7557C28.0178 50.8398 27.8693 49.8475 27.8693 48.7789C27.8693 48.0325 27.9117 47.2862 27.9966 46.5399C28.0898 45.7851 28.1959 45.0811 28.3146 44.4281ZM56.3331 47.9647C56.2313 47.9647 56.1422 48.0453 56.0659 48.2064C55.7436 48.834 55.4001 49.4022 55.0355 49.9111C54.6793 50.42 54.3188 50.8525 53.9541 51.2087C53.5894 51.5649 53.229 51.8405 52.8728 52.0356C52.5166 52.2222 52.1816 52.3155 51.8678 52.3155C51.5625 52.3155 51.2784 52.2519 51.0154 52.1247C50.761 51.989 50.4811 51.7388 50.1758 51.3741C49.879 51.0094 49.5355 50.5048 49.1454 49.8602C48.7637 49.2157 48.293 48.376 47.7333 47.3413C47.64 47.1717 47.5425 47.0487 47.4407 46.9724C47.3474 46.8876 47.2626 46.8452 47.1863 46.8452C47.076 46.8452 46.9742 46.9639 46.8809 47.2014C46.7877 47.4304 46.7071 47.7569 46.6392 48.181C46.5714 48.5965 46.5163 49.1012 46.4739 49.6948C46.4399 50.28 46.423 50.9288 46.423 51.6412C46.423 52.0653 46.4442 52.4893 46.4866 52.9134C46.5375 53.3374 46.5629 53.7742 46.5629 54.2237C46.5629 54.3764 46.5205 54.5205 46.4357 54.6562C46.3509 54.7835 46.2364 54.8937 46.0922 54.987C45.9565 55.0888 45.7911 55.1693 45.5961 55.2287C45.4095 55.2881 45.2102 55.3178 44.9982 55.3178C44.5741 55.3178 44.2688 55.0633 44.0822 54.5545C43.8956 54.0456 43.8023 53.2314 43.8023 52.1119C43.8023 50.6956 43.8787 49.4107 44.0313 48.2573C44.1925 47.0954 44.4172 46.1031 44.7056 45.2805C45.0024 44.4493 45.3501 43.809 45.7487 43.3595C46.1558 42.9015 46.6095 42.6725 47.1099 42.6725C47.5509 42.6725 47.9708 42.927 48.3694 43.4358C48.7765 43.9362 49.2132 44.7504 49.6797 45.8784C49.8663 46.3363 50.0656 46.7646 50.2776 47.1632C50.4981 47.5619 50.7144 47.9096 50.9264 48.2064C51.1469 48.4948 51.3589 48.7238 51.5625 48.8934C51.766 49.0545 51.9484 49.1351 52.1095 49.1351C52.2706 49.1351 52.4233 49.1012 52.5675 49.0333C52.7201 48.957 52.8898 48.8001 53.0763 48.5626C53.2714 48.3167 53.4962 47.9605 53.7506 47.494C54.0135 47.0275 54.3358 46.4042 54.7174 45.6239C54.921 45.2168 55.1033 44.8776 55.2644 44.6062C55.4256 44.3348 55.5867 44.1186 55.7479 43.9574C55.909 43.7878 56.0786 43.6691 56.2567 43.6012C56.4348 43.5249 56.6341 43.4867 56.8546 43.4867C57.1176 43.4867 57.3762 43.6267 57.6307 43.9065C57.8851 44.1864 58.131 44.5596 58.3685 45.026C58.6145 45.4925 58.8519 46.0353 59.0809 46.6544C59.3099 47.2735 59.5304 47.9223 59.7424 48.6008C59.9629 49.2793 60.175 49.9705 60.3785 50.6744C60.5905 51.3698 60.7941 52.0314 60.9891 52.659C61.04 52.8455 61.074 52.977 61.0909 53.0533C61.1164 53.1212 61.1291 53.206 61.1291 53.3078C61.1291 53.4519 61.0824 53.5961 60.9891 53.7403C60.9043 53.876 60.7898 53.999 60.6457 54.1092C60.5015 54.2195 60.3361 54.3085 60.1495 54.3764C59.9714 54.4442 59.7933 54.4781 59.6152 54.4781C59.3777 54.4781 59.1912 54.4527 59.0555 54.4018C58.9283 54.3424 58.8265 54.2407 58.7502 54.0965C58.7077 54.0202 58.6357 53.8166 58.5339 53.4859C58.4321 53.1551 58.3091 52.765 58.165 52.3155C58.0293 51.8575 57.8766 51.3741 57.707 50.8652C57.5458 50.3564 57.3805 49.8899 57.2108 49.4658C57.0497 49.0333 56.8928 48.6771 56.7401 48.3972C56.5875 48.1089 56.4518 47.9647 56.3331 47.9647ZM75.2047 47.9647C75.1029 47.9647 75.0139 48.0453 74.9376 48.2064C74.6153 48.834 74.2718 49.4022 73.9071 49.9111C73.5509 50.42 73.1905 50.8525 72.8258 51.2087C72.4611 51.5649 72.1007 51.8405 71.7445 52.0356C71.3883 52.2222 71.0533 52.3155 70.7395 52.3155C70.4341 52.3155 70.15 52.2519 69.8871 52.1247C69.6327 51.989 69.3528 51.7388 69.0475 51.3741C68.7507 51.0094 68.4072 50.5048 68.017 49.8602C67.6354 49.2157 67.1647 48.376 66.6049 47.3413C66.5117 47.1717 66.4141 47.0487 66.3124 46.9724C66.2191 46.8876 66.1343 46.8452 66.0579 46.8452C65.9477 46.8452 65.8459 46.9639 65.7526 47.2014C65.6593 47.4304 65.5787 47.7569 65.5109 48.181C65.443 48.5965 65.3879 49.1012 65.3455 49.6948C65.3116 50.28 65.2946 50.9288 65.2946 51.6412C65.2946 52.0653 65.3158 52.4893 65.3582 52.9134C65.4091 53.3374 65.4346 53.7742 65.4346 54.2237C65.4346 54.3764 65.3922 54.5205 65.3073 54.6562C65.2225 54.7835 65.108 54.8937 64.9639 54.987C64.8282 55.0888 64.6628 55.1693 64.4677 55.2287C64.2811 55.2881 64.0818 55.3178 63.8698 55.3178C63.4458 55.3178 63.1404 55.0633 62.9539 54.5545C62.7673 54.0456 62.674 53.2314 62.674 52.1119C62.674 50.6956 62.7503 49.4107 62.903 48.2573C63.0641 47.0954 63.2889 46.1031 63.5772 45.2805C63.8741 44.4493 64.2218 43.809 64.6204 43.3595C65.0275 42.9015 65.4812 42.6725 65.9816 42.6725C66.4226 42.6725 66.8424 42.927 67.241 43.4358C67.6481 43.9362 68.0849 44.7504 68.5513 45.8784C68.7379 46.3363 68.9372 46.7646 69.1493 47.1632C69.3698 47.5619 69.586 47.9096 69.7981 48.2064C70.0186 48.4948 70.2306 48.7238 70.4341 48.8934C70.6377 49.0545 70.82 49.1351 70.9812 49.1351C71.1423 49.1351 71.295 49.1012 71.4391 49.0333C71.5918 48.957 71.7614 48.8001 71.948 48.5626C72.1431 48.3167 72.3678 47.9605 72.6222 47.494C72.8852 47.0275 73.2074 46.4042 73.5891 45.6239C73.7926 45.2168 73.975 44.8776 74.1361 44.6062C74.2972 44.3348 74.4584 44.1186 74.6195 43.9574C74.7807 43.7878 74.9503 43.6691 75.1284 43.6012C75.3065 43.5249 75.5058 43.4867 75.7263 43.4867C75.9892 43.4867 76.2479 43.6267 76.5023 43.9065C76.7567 44.1864 77.0027 44.5596 77.2402 45.026C77.4861 45.4925 77.7236 46.0353 77.9526 46.6544C78.1816 47.2735 78.4021 47.9223 78.6141 48.6008C78.8346 49.2793 79.0466 49.9705 79.2502 50.6744C79.4622 51.3698 79.6657 52.0314 79.8608 52.659C79.9117 52.8455 79.9456 52.977 79.9626 53.0533C79.988 53.1212 80.0007 53.206 80.0007 53.3078C80.0007 53.4519 79.9541 53.5961 79.8608 53.7403C79.776 53.876 79.6615 53.999 79.5173 54.1092C79.3731 54.2195 79.2078 54.3085 79.0212 54.3764C78.8431 54.4442 78.665 54.4781 78.4869 54.4781C78.2494 54.4781 78.0628 54.4527 77.9271 54.4018C77.7999 54.3424 77.6981 54.2407 77.6218 54.0965C77.5794 54.0202 77.5073 53.8166 77.4055 53.4859C77.3038 53.1551 77.1808 52.765 77.0366 52.3155C76.9009 51.8575 76.7483 51.3741 76.5786 50.8652C76.4175 50.3564 76.2521 49.8899 76.0825 49.4658C75.9214 49.0333 75.7645 48.6771 75.6118 48.3972C75.4592 48.1089 75.3235 47.9647 75.2047 47.9647ZM79.1158 44.0083C78.819 43.7878 78.6706 43.5249 78.6706 43.2196C78.6706 43.1008 78.6918 42.9863 78.7342 42.8761C78.7766 42.7573 78.8529 42.6386 78.9632 42.5199L79.3321 42.1001C79.5526 41.8287 79.8113 41.693 80.1081 41.693C80.2099 41.693 80.3201 41.7142 80.4389 41.7566C80.5491 41.7905 80.6636 41.8541 80.7824 41.9474C81.9697 42.8379 83.1104 43.7623 84.2045 44.7207C85.307 45.6706 86.3714 46.7095 87.3976 47.8375C87.5587 47.9901 87.6986 48.0665 87.8174 48.0665C88.0464 48.0665 88.1863 47.9138 88.2372 47.6085L89.3567 43.1432C89.4839 42.6429 89.7426 42.3927 90.1327 42.3927C90.2175 42.3927 90.3066 42.4054 90.3999 42.4308C90.5016 42.4563 90.6034 42.5029 90.7052 42.5708L91.1504 42.8125C91.566 43.0415 91.7738 43.351 91.7738 43.7411C91.7738 43.8684 91.7483 44.0083 91.6975 44.161C91.4091 45.2211 91.1165 46.3406 90.8197 47.5194C90.5313 48.6898 90.2345 49.8941 89.9292 51.1324C89.6238 52.3621 89.31 53.6088 88.9878 54.8725C88.6655 56.1362 88.3347 57.3871 87.9955 58.6254C87.8598 59.1427 87.5672 59.4014 87.1177 59.4014C86.9905 59.4014 86.8505 59.3759 86.6979 59.3251L86.2781 59.1978C86.0152 59.13 85.8243 59.0197 85.7056 58.8671C85.5869 58.7144 85.5275 58.5278 85.5275 58.3073C85.5275 58.2564 85.5275 58.1971 85.5275 58.1292C85.536 58.0614 85.5529 57.9935 85.5784 57.9257C85.8498 56.9164 86.1169 55.9157 86.3798 54.9234C86.6428 53.9311 86.8972 52.9346 87.1431 51.9338C87.1601 51.8745 87.1728 51.8236 87.1813 51.7812C87.1898 51.7388 87.194 51.6921 87.194 51.6412C87.194 51.5395 87.1686 51.4419 87.1177 51.3486C87.0753 51.2553 87.0159 51.1621 86.9396 51.0688C85.7438 49.7457 84.4928 48.5032 83.1867 47.3413C81.8891 46.1794 80.5322 45.0684 79.1158 44.0083Z" fill="#FFF6E7"/>
<path d="M83.4797 22.5761C83.2553 21.6752 81.6093 20.9996 80.5619 21.45C79.0656 22.0506 78.3922 22.5761 78.916 24.3028C79.0656 24.9034 79.8137 26.2547 80.1878 26.3297C80.7115 26.5549 81.9834 26.63 82.3575 26.2547C83.4797 25.2036 83.6294 23.2518 83.4797 22.5761Z" fill="#DDA85F"/>
<path d="M81.9681 24.1263C81.9686 24.1263 81.9686 24.1289 81.9668 24.1345C81.9667 24.1292 81.9677 24.1264 81.9681 24.1263ZM81.9643 24.1408C81.9567 24.1584 81.9362 24.1926 81.8846 24.2464C81.7678 24.3679 81.5675 24.4999 81.325 24.6092C81.1478 24.6891 80.9729 24.7457 80.8282 24.7769C80.831 24.7588 80.834 24.7401 80.8373 24.7208C80.8751 24.4977 80.9405 24.224 81.0313 23.9538C81.123 23.6807 81.234 23.4309 81.3558 23.2441C81.4252 23.1377 81.4856 23.0707 81.5328 23.0294C81.567 23.1016 81.6097 23.2044 81.6673 23.3534C81.7092 23.4621 81.7534 23.58 81.8043 23.7162C81.8508 23.8403 81.903 23.9797 81.9643 24.1408Z" stroke="black"/>
<path d="M29.842 28.9106C29.6176 28.0097 27.9716 27.3341 26.9242 27.7845C25.4279 28.3851 24.7545 28.9106 25.2782 30.6372C25.4279 31.2378 26.176 32.5891 26.5501 32.6642C27.0738 32.8894 28.3457 32.9645 28.7198 32.5891C29.842 31.5381 29.9917 29.5862 29.842 28.9106Z" fill="#DDA85F"/>
<path d="M28.3302 30.4603C28.3307 30.4602 28.3307 30.4629 28.3288 30.4685C28.3288 30.4632 28.3298 30.4604 28.3302 30.4603ZM28.3264 30.4748C28.3188 30.4924 28.2983 30.5265 28.2467 30.5803C28.1299 30.7019 27.9295 30.8339 27.6871 30.9432C27.5099 31.0231 27.335 31.0797 27.1903 31.1109C27.1931 31.0928 27.1961 31.0741 27.1994 31.0548C27.2372 30.8317 27.3026 30.5579 27.3933 30.2877C27.485 30.0147 27.5961 29.7649 27.7179 29.5781C27.7872 29.4717 27.8476 29.4047 27.8949 29.3634C27.929 29.4356 27.9718 29.5384 28.0293 29.6874C28.0713 29.796 28.1155 29.914 28.1664 30.0502C28.2129 30.1743 28.2651 30.3136 28.3264 30.4748Z" stroke="black"/>
<path d="M83.8779 69.9702C83.7459 69.4402 82.7776 69.0428 82.1615 69.3077C81.2812 69.661 80.8851 69.9702 81.1932 70.9859C81.2812 71.3392 81.7214 72.1341 81.9414 72.1782C82.2495 72.3107 82.9977 72.3549 83.2177 72.1341C83.8779 71.5158 83.9659 70.3676 83.8779 69.9702Z" fill="#DDA85F"/>
<path d="M82.8068 70.791C82.8069 70.791 82.8065 70.7916 82.8056 70.7927C82.8064 70.7916 82.8068 70.791 82.8068 70.791ZM82.7496 70.8463C82.7133 70.8752 82.6637 70.9078 82.6026 70.9401C82.612 70.9086 82.6219 70.8769 82.6325 70.8453C82.6511 70.7902 82.6706 70.738 82.6909 70.6895C82.6935 70.6966 82.6962 70.7037 82.6989 70.711C82.7144 70.7526 82.7312 70.7973 82.7496 70.8463ZM82.529 70.2907C82.528 70.2893 82.5276 70.2885 82.5276 70.2884C82.5276 70.2884 82.5281 70.2891 82.529 70.2907Z" stroke="black"/>
<path d="M41.5021 12.4859C40.2319 12.8035 39.2792 15.1322 39.9143 16.6142C40.7611 18.7313 42.7724 19.0488 44.9953 17.8845C46.9007 16.9318 47.0065 13.5444 46.4773 12.9093C44.8894 11.3215 42.4548 12.2742 41.5021 12.4859" fill="#DDA85F"/>
<mask id="path-11-inside-1_2_82" fill="white">
<path d="M41.4374 13.8564C40.8023 14.5973 40.273 17.5613 41.8608 17.1378C44.7189 16.291 46.7301 13.4329 45.4599 13.0095C43.8721 12.4802 42.1784 13.0095 41.4374 13.8564"/>
</mask>
<path d="M41.8608 17.1378L42.1185 18.1041L42.1318 18.1005L42.1449 18.0966L41.8608 17.1378ZM45.4599 13.0095L45.1437 13.9582L45.4599 13.0095ZM40.6782 13.2056C40.3861 13.5463 40.1846 14.026 40.0556 14.4504C39.9189 14.9 39.8241 15.4194 39.8157 15.9168C39.8079 16.3754 39.8694 16.9944 40.221 17.4881C40.4143 17.7596 40.6953 17.9902 41.0663 18.1045C41.4262 18.2153 41.7893 18.1919 42.1185 18.1041L41.6032 16.1716C41.5354 16.1897 41.5677 16.1662 41.6551 16.1931C41.7536 16.2234 41.8204 16.2862 41.85 16.3278C41.8741 16.3617 41.8099 16.2728 41.8154 15.9507C41.8202 15.6674 41.8775 15.3333 41.9691 15.0321C42.0141 14.8839 42.0635 14.7569 42.1106 14.6583C42.1339 14.6095 42.1547 14.5718 42.1715 14.5444C42.1889 14.5162 42.198 14.5055 42.1967 14.5071L40.6782 13.2056ZM42.1449 18.0966C43.7859 17.6104 45.1708 16.5589 45.9882 15.541C46.3859 15.0457 46.7285 14.4606 46.8227 13.8723C46.8716 13.567 46.8644 13.1872 46.6791 12.8216C46.4822 12.4332 46.147 12.1844 45.7761 12.0608L45.1437 13.9582C45.0904 13.9404 44.9701 13.8736 44.8952 13.7259C44.8319 13.6009 44.8536 13.5205 44.8479 13.5559C44.833 13.649 44.7323 13.9107 44.4288 14.2888C43.8436 15.0175 42.7938 15.8184 41.5767 16.179L42.1449 18.0966ZM45.7761 12.0608C43.8509 11.4191 41.7209 12.0138 40.6848 13.1978L42.19 14.5149C42.6359 14.0052 43.8932 13.5414 45.1437 13.9582L45.7761 12.0608Z" fill="black" mask="url(#path-11-inside-1_2_82)"/>
<path d="M54.9336 70.0044C53.9197 70.2579 53.1593 72.1167 53.6662 73.2996C54.3422 74.9894 55.9475 75.2429 57.7218 74.3135C59.2427 73.5531 59.3272 70.8494 58.9047 70.3424C57.6373 69.075 55.694 69.8355 54.9336 70.0044" fill="#DDA85F"/>
<mask id="path-14-inside-2_2_82" fill="white">
<path d="M54.8822 71.0978C54.3752 71.6892 53.9528 74.0549 55.2201 73.717C57.5014 73.0411 59.1067 70.7598 58.0928 70.4218C56.8255 69.9994 55.4736 70.4218 54.8822 71.0978"/>
</mask>
<path d="M55.2201 73.717L55.4778 74.6832L55.4911 74.6797L55.5042 74.6758L55.2201 73.717ZM58.0928 70.4218L57.7766 71.3705L58.0928 70.4218ZM54.1229 70.447C53.8629 70.7504 53.6921 71.1646 53.5861 71.5132C53.4725 71.8871 53.393 72.3204 53.3859 72.739C53.3795 73.1188 53.4283 73.6664 53.7468 74.1136C53.9237 74.3619 54.1831 74.5756 54.5266 74.6814C54.8589 74.7838 55.1886 74.7603 55.4778 74.6832L54.9625 72.7508C54.9348 72.7581 55.0005 72.7347 55.1153 72.77C55.2413 72.8089 55.3297 72.8886 55.3759 72.9534C55.433 73.0336 55.3815 73.0161 55.3856 72.7728C55.3891 72.5683 55.4311 72.3204 55.4997 72.0949C55.5759 71.8442 55.648 71.7409 55.6414 71.7486L54.1229 70.447ZM55.5042 74.6758C56.8568 74.275 57.996 73.4104 58.6719 72.5688C58.9988 72.1616 59.2967 71.662 59.3799 71.1424C59.4233 70.8715 59.419 70.5219 59.246 70.1806C59.0614 69.8165 58.7479 69.5861 58.4091 69.4731L57.7766 71.3705C57.6913 71.3421 57.5493 71.2569 57.4621 71.0848C57.4245 71.0107 57.4101 70.9445 57.4053 70.8991C57.4006 70.8551 57.4046 70.829 57.4051 70.826C57.4053 70.825 57.3961 70.8732 57.3446 70.9717C57.2954 71.0659 57.2195 71.1833 57.1125 71.3165C56.6688 71.869 55.8647 72.483 54.936 72.7582L55.5042 74.6758ZM58.4091 69.4731C56.8043 68.9382 55.0161 69.4261 54.1296 70.4393L55.6347 71.7563C55.9311 71.4175 56.8466 71.0605 57.7766 71.3705L58.4091 69.4731Z" fill="black" mask="url(#path-14-inside-2_2_82)"/>
<path d="M64.9147 31.3324C64.6595 30.3079 62.7876 29.5395 61.5964 30.0517C59.8947 30.7347 59.1289 31.3324 59.7245 33.296C59.8947 33.979 60.7456 35.5158 61.171 35.6012C61.7666 35.8573 63.213 35.9427 63.6384 35.5158C64.9147 34.3205 65.0849 32.1007 64.9147 31.3324Z" fill="#DDA85F"/>
<path d="M63.0013 31.8079C63.0899 31.8428 63.201 31.947 63.2598 32.2583C63.3188 32.5715 63.2976 32.9866 63.2094 33.4109C63.1216 33.8338 62.9777 34.2161 62.8313 34.4612C62.806 34.5035 62.7828 34.5381 62.7623 34.566C62.7541 34.5592 62.7457 34.5521 62.737 34.5447C62.6383 34.4606 62.5174 34.3463 62.3829 34.2069C62.1138 33.9281 61.8048 33.564 61.5251 33.1709C61.2436 32.7754 61.0038 32.3672 60.86 31.9991C60.7193 31.639 60.6991 31.3904 60.7376 31.241C60.7534 31.2116 60.7655 31.1926 60.7737 31.1808C60.795 31.1801 60.8338 31.1813 60.8975 31.1907C61.0546 31.2141 61.2823 31.2742 61.6389 31.3827C61.8202 31.4378 62.0199 31.5007 62.2491 31.5729C62.4693 31.6422 62.7168 31.7201 63.0013 31.8079Z" stroke="black"/>
<path d="M32.7319 65.252C32.4766 64.2275 30.6047 63.4591 29.4136 63.9714C27.7119 64.6544 26.9461 65.252 27.5417 67.2157C27.7119 67.8987 28.5627 69.4355 28.9881 69.5208C29.5837 69.777 31.0302 69.8623 31.4556 69.4355C32.7319 68.2402 32.902 66.0204 32.7319 65.252Z" fill="#DDA85F"/>
<path d="M30.8182 65.7271C30.9068 65.762 31.0179 65.8662 31.0766 66.1775C31.1357 66.4907 31.1144 66.9058 31.0263 67.3301C30.9385 67.753 30.7946 68.1353 30.6481 68.3804C30.6228 68.4227 30.5996 68.4573 30.5791 68.4851C30.571 68.4784 30.5625 68.4713 30.5539 68.4639C30.4551 68.3798 30.3343 68.2655 30.1997 68.1261C29.9307 67.8473 29.6216 67.4832 29.3419 67.0901C29.0604 66.6946 28.8207 66.2864 28.6769 65.9183C28.5362 65.5582 28.5159 65.3096 28.5545 65.1602C28.5703 65.1308 28.5823 65.1118 28.5905 65.1C28.6118 65.0993 28.6507 65.1004 28.7143 65.1099C28.8714 65.1333 29.0991 65.1934 29.4558 65.3019C29.637 65.357 29.8367 65.4199 30.066 65.4921C30.2862 65.5614 30.5336 65.6393 30.8182 65.7271Z" stroke="black"/>
<path d="M39.6962 81.5752C39.4986 80.7848 38.0495 80.192 37.1274 80.5872C35.8101 81.1141 35.2173 81.5752 35.6783 83.0901C35.8101 83.617 36.4687 84.8026 36.7981 84.8685C37.2591 85.0661 38.3788 85.1319 38.7082 84.8026C39.6962 83.8805 39.8279 82.168 39.6962 81.5752Z" fill="#DDA85F"/>
<path d="M36.4261 82.1729C36.4222 82.1492 36.4223 82.0713 36.5736 81.9236C36.7351 81.7658 36.996 81.6089 37.2979 81.4874C37.5796 81.3741 37.8555 81.3081 38.057 81.292C38.0451 81.3666 38.0289 81.4525 38.0081 81.5474C37.9452 81.834 37.8452 82.1827 37.7145 82.5247C37.5827 82.8697 37.4271 83.1887 37.2595 83.428C37.1195 83.628 37.0028 83.7269 36.923 83.7696C36.9225 83.7685 36.922 83.7675 36.9215 83.7664C36.8734 83.6642 36.8168 83.4998 36.7338 83.224C36.6917 83.0838 36.647 82.9298 36.5956 82.7526C36.5464 82.5833 36.4912 82.3928 36.4261 82.1729Z" stroke="black"/>
</g>
<defs>
<filter id="filter0_d_2_82" x="0" y="0" width="107" height="107" filterUnits="userSpaceOnUse" color-interpolation-filters="sRGB">
<feFlood flood-opacity="0" result="BackgroundImageFix"/>
<feColorMatrix in="SourceAlpha" type="matrix" values="0 0 0 0 0 0 0 0 0 0 0 0 0 0 0 0 0 0 127 0" result="hardAlpha"/>
<feOffset dy="4"/>
<feGaussianBlur stdDeviation="2"/>
<feComposite in2="hardAlpha" operator="out"/>
<feColorMatrix type="matrix" values="0 0 0 0 0 0 0 0 0 0 0 0 0 0 0 0 0 0 0.25 0"/>
<feBlend mode="normal" in2="BackgroundImageFix" result="effect1_dropShadow_2_82"/>
<feBlend mode="normal" in="SourceGraphic" in2="effect1_dropShadow_2_82" result="shape"/>
</filter>
</defs>
</svg>
